# xmcd
#
# Track frame offsets:
#	150
#	20197
#	43267
#	60727
#	83092
#	100912
#	119427
#	138442
#	151560
#	177135
#	206602
#	231995
#	255960
#	270195
#	288605
#	307280
#
# Disc length: 4319 seconds
#
# Revision: 1
# Processed by: cddbd v1.5.1PL0 Copyright (c) Steve Scherf et al.
# Submitted via: CDex 1.50Beta5
#
DISCID=e010dd10
DTITLE=さまざまなアーティスト - The Many MoodsOf Smiley Smile
DYEAR=1900
DGENRE=Pop
TTITLE0=街にさよなら/Ride,Ride Blue Train
TTITLE1=朝の友人/ビューティフルハミングバード
TTITLE2=嘘つきケイティ/西村明正
TTITLE3=面影/Lamp
TTITLE4=ノーウェア・カーネリー/トルネード竜巻
TTITLE5=サマーガーデン/セロファン
TTITLE6=甘い種の不思議/ANATAKIKOU
TTITLE7=Freak Show/菅井協太
TTITLE8=泪橋/べべチオ
TTITLE9=Mighty Shine,Mighty Rhythe/bonobos
TTITLE10=期待/HAYDON
TTITLE11=犬と兵士/Clingon
TTITLE12=穴をほる/Polyp
TTITLE13=夏の思い出(納涼編)/ゲントウキ
TTITLE14=未だ見ぬ街へ/ロビンズ
TTITLE15=Summerous Partnership/永江孝志
EXTD=
EXTT0=
EXTT1=
EXTT2=
EXTT3=
EXTT4=
EXTT5=
EXTT6=
EXTT7=
EXTT8=
EXTT9=
EXTT10=
EXTT11=
EXTT12=
EXTT13=
EXTT14=
EXTT15=
PLAYORDER=
